<svg width="20" height="13" viewBox="0 0 20 13" fill="none" xmlns="http://www.w3.org/2000/svg">
<path d="M8.07031 5.91164C8.07031 5.91164 9.96264 5.77297 9.96264 3.58268C9.96264 1.39222 8.41448 0.323242 6.4534 0.323242H0.000244141V12.5638H6.4534C6.4534 12.5638 10.3928 12.6866 10.3928 8.95095C10.3928 8.95099 10.5646 5.91164 8.07031 5.91164ZM5.9889 2.49886H6.4534C6.4534 2.49886 7.33057 2.49886 7.33057 3.77244C7.33057 5.04586 6.8147 5.23049 6.22956 5.23049H2.84359V2.49886H5.9889ZM6.27104 10.3883H2.84359V7.11712H6.4534C6.4534 7.11712 7.76078 7.1002 7.76078 8.79815C7.76078 10.2299 6.78429 10.3774 6.27104 10.3883ZM15.6467 3.4376C10.8776 3.4376 10.8818 8.14079 10.8818 8.14079C10.8818 8.14079 10.5546 12.8198 15.6467 12.8198C15.6467 12.8198 19.8901 13.0591 19.8901 9.56489H17.7078C17.7078 9.56489 17.7805 10.8808 15.7195 10.8808C15.7195 10.8808 13.5368 11.0251 13.5368 8.75118H19.9628C19.9628 8.75114 20.666 3.4376 15.6467 3.4376ZM13.5129 7.11712C13.5129 7.11712 13.7793 5.23045 15.6952 5.23045C17.6106 5.23045 17.5866 7.11712 17.5866 7.11712H13.5129ZM18.095 2.5517H12.9786V1.04437H18.095V2.5517Z" fill="#4A60A1"/>
</svg>
